<?xml version="1.0" encoding="UTF-8"?>
<svg id="Camada_1" data-name="Camada 1" xmlns="http://www.w3.org/2000/svg" viewBox="0 0 1517.91 700.88">
  <defs>
    <style>
      .cls-1, .cls-2 {
        fill: #00378f;
      }

      .cls-2 {
        stroke: #00378f;
        stroke-miterlimit: 10;
        stroke-width: 1.28px;
      }
    </style>
  </defs>
  <rect class="cls-1" x="559.1" y="244.77" width="732.42" height="10.3"/>
  <path class="cls-1" d="M491.07,307.24s-82.43-25.3-124.6-54.49c-42.17-29.19-47.92-81.73-46-110.93,1.62-24.68,17.92-46.48,23.43-52.15,3.8-3.91,20.65-16.3,28.66-20.19,8.86-4.31,27-11.69,33.98-14.41.95-.37,16.88-5.93,17.84-6.24,7.66-2.47,27.07-6.09,27.71-7.55.29-.67-1-1.71-2.24-2.34-2.59-1.32-4.9-1.32-8.38-1.54-16.23-1.03-92.23,7.05-175.96,64.85-95.84,66.17-90.73,205.63-90.73,205.63"/>
  <path class="cls-2" d="M170.91,408.09s82.43,25.3,124.6,54.49c42.17,29.19,47.92,81.73,46,110.93-1.62,24.68-20.88,51.41-33.54,60.2-4.74,3.29-10.54,8.25-18.55,12.14-8.86,4.31-27,11.69-33.98,14.41-.95.37-26.47,8.12-27.47,8.33-6.27,1.3-18.08,3.77-18.08,5.47,0,.73,1,1.71,2.24,2.34,2.59,1.32,4.9,1.32,8.38,1.54,16.23,1.03,92.23-7.05,175.96-64.85,95.84-66.17,90.73-205.63,90.73-205.63"/>
  <rect class="cls-1" x="557.31" y="565.95" width="732.42" height="11.36"/>
  <g>
    <path class="cls-1" d="M185.87,392.15l24.08-69.49h8.94l25.67,69.49h-9.45l-7.32-21.04h-26.22l-6.89,21.04h-8.81ZM203.96,363.62h21.26l-6.54-19.24c-2-5.84-3.48-10.65-4.45-14.41-.8,4.46-1.92,8.88-3.38,13.27l-6.89,20.38Z"/>
    <path class="cls-1" d="M248.37,369.83l7.83-.76c.37,3.48,1.23,6.33,2.59,8.56,1.35,2.23,3.46,4.03,6.31,5.4,2.85,1.37,6.06,2.06,9.62,2.06,3.17,0,5.96-.52,8.38-1.56,2.42-1.04,4.23-2.47,5.41-4.29,1.18-1.82,1.78-3.8,1.78-5.95s-.57-4.08-1.71-5.71c-1.14-1.63-3.02-2.99-5.65-4.1-1.68-.73-5.4-1.86-11.16-3.39-5.76-1.53-9.8-2.98-12.11-4.34-2.99-1.74-5.23-3.89-6.69-6.47-1.47-2.58-2.2-5.46-2.2-8.65,0-3.51.9-6.79,2.69-9.83,1.8-3.05,4.42-5.36,7.87-6.94,3.45-1.58,7.29-2.37,11.51-2.37,4.65,0,8.75.83,12.3,2.49,3.55,1.66,6.28,4.1,8.19,7.32,1.91,3.22,2.94,6.87,3.08,10.95l-7.96.66c-.43-4.39-1.88-7.71-4.34-9.95-2.47-2.24-6.11-3.37-10.93-3.37s-8.68,1.02-10.97,3.06c-2.3,2.04-3.44,4.5-3.44,7.37,0,2.5.81,4.55,2.44,6.16,1.6,1.61,5.77,3.26,12.51,4.95s11.37,3.17,13.88,4.43c3.65,1.86,6.34,4.23,8.08,7.09,1.74,2.86,2.61,6.15,2.61,9.88s-.96,7.18-2.87,10.45c-1.91,3.27-4.66,5.81-8.23,7.63-3.58,1.82-7.61,2.72-12.08,2.72-5.68,0-10.43-.92-14.27-2.75-3.84-1.83-6.84-4.59-9.03-8.27-2.18-3.68-3.33-7.84-3.44-12.49Z"/>
    <path class="cls-1" d="M310.05,392.15v-69.49h42.31v8.2h-34.01v21.52h29.43v8.2h-29.43v31.57h-8.3Z"/>
    <path class="cls-1" d="M404.29,322.67h8.3v40.15c0,6.98-.71,12.53-2.14,16.64-1.43,4.11-4,7.45-7.72,10.02s-8.61,3.86-14.65,3.86-10.68-1.12-14.42-3.37-6.4-5.49-8-9.74c-1.6-4.25-2.4-10.06-2.4-17.42v-40.15h8.3v40.1c0,6.04.51,10.48,1.52,13.34,1.01,2.86,2.75,5.06,5.22,6.61,2.47,1.55,5.48,2.32,9.05,2.32,6.1,0,10.45-1.53,13.05-4.6,2.59-3.06,3.89-8.96,3.89-17.68v-40.1Z"/>
    <path class="cls-1" d="M423.58,369.83l7.83-.76c.37,3.48,1.23,6.33,2.59,8.56,1.35,2.23,3.46,4.03,6.31,5.4,2.85,1.37,6.06,2.06,9.62,2.06,3.17,0,5.96-.52,8.38-1.56,2.42-1.04,4.23-2.47,5.41-4.29,1.18-1.82,1.78-3.8,1.78-5.95s-.57-4.08-1.71-5.71c-1.14-1.63-3.02-2.99-5.65-4.1-1.68-.73-5.4-1.86-11.16-3.39-5.76-1.53-9.8-2.98-12.11-4.34-2.99-1.74-5.23-3.89-6.69-6.47-1.47-2.58-2.2-5.46-2.2-8.65,0-3.51.9-6.79,2.69-9.83,1.8-3.05,4.42-5.36,7.87-6.94,3.45-1.58,7.29-2.37,11.51-2.37,4.65,0,8.75.83,12.3,2.49,3.55,1.66,6.28,4.1,8.19,7.32,1.91,3.22,2.94,6.87,3.08,10.95l-7.96.66c-.43-4.39-1.88-7.71-4.34-9.95-2.47-2.24-6.11-3.37-10.93-3.37s-8.68,1.02-10.97,3.06c-2.3,2.04-3.44,4.5-3.44,7.37,0,2.5.81,4.55,2.44,6.16,1.6,1.61,5.77,3.26,12.51,4.95s11.37,3.17,13.88,4.43c3.65,1.86,6.34,4.23,8.08,7.09,1.74,2.86,2.61,6.15,2.61,9.88s-.96,7.18-2.87,10.45c-1.91,3.27-4.66,5.81-8.23,7.63-3.58,1.82-7.61,2.72-12.08,2.72-5.68,0-10.43-.92-14.27-2.75-3.84-1.83-6.84-4.59-9.03-8.27-2.18-3.68-3.33-7.84-3.44-12.49Z"/>
  </g>
  <g>
    <path class="cls-1" d="M702.84,350.97l17.97-51.63h6.67l19.15,51.63h-7.06l-5.46-15.64h-19.57l-5.14,15.64h-6.58ZM716.35,329.77h15.87l-4.88-14.3c-1.49-4.34-2.6-7.91-3.32-10.71-.6,3.31-1.44,6.6-2.52,9.86l-5.14,15.15Z"/>
    <path class="cls-1" d="M749.48,334.38l5.84-.56c.28,2.58.92,4.7,1.93,6.36,1.01,1.66,2.58,2.99,4.71,4.02s4.52,1.53,7.18,1.53c2.36,0,4.45-.39,6.26-1.16,1.81-.78,3.16-1.84,4.04-3.19s1.33-2.82,1.33-4.42-.43-3.03-1.28-4.24c-.85-1.21-2.26-2.22-4.21-3.05-1.26-.54-4.03-1.38-8.33-2.52-4.3-1.14-7.31-2.21-9.04-3.22-2.23-1.29-3.9-2.89-5-4.81-1.1-1.91-1.64-4.06-1.64-6.43,0-2.61.67-5.04,2.01-7.31,1.34-2.27,3.3-3.99,5.87-5.16,2.58-1.17,5.44-1.76,8.59-1.76,3.47,0,6.53.62,9.18,1.85,2.65,1.23,4.69,3.05,6.11,5.44,1.43,2.39,2.19,5.11,2.3,8.14l-5.94.49c-.32-3.26-1.4-5.73-3.24-7.4-1.84-1.67-4.56-2.5-8.16-2.5s-6.48.76-8.19,2.27-2.57,3.34-2.57,5.48c0,1.86.61,3.38,1.82,4.58,1.19,1.2,4.3,2.42,9.34,3.68,5.03,1.26,8.49,2.35,10.36,3.29,2.72,1.39,4.73,3.14,6.03,5.27,1.3,2.13,1.95,4.57,1.95,7.34s-.71,5.34-2.14,7.77c-1.43,2.43-3.47,4.32-6.15,5.67-2.67,1.35-5.68,2.03-9.02,2.03-4.24,0-7.78-.68-10.65-2.04s-5.11-3.41-6.74-6.15-2.49-5.83-2.57-9.28Z"/>
    <path class="cls-1" d="M793.09,334.38l5.84-.56c.28,2.58.92,4.7,1.93,6.36,1.01,1.66,2.58,2.99,4.71,4.02s4.52,1.53,7.18,1.53c2.36,0,4.45-.39,6.26-1.16,1.81-.78,3.16-1.84,4.04-3.19s1.33-2.82,1.33-4.42-.43-3.03-1.28-4.24c-.85-1.21-2.26-2.22-4.21-3.05-1.26-.54-4.03-1.38-8.33-2.52-4.3-1.14-7.31-2.21-9.04-3.22-2.23-1.29-3.9-2.89-5-4.81-1.1-1.91-1.64-4.06-1.64-6.43,0-2.61.67-5.04,2.01-7.31,1.34-2.27,3.3-3.99,5.87-5.16,2.58-1.17,5.44-1.76,8.59-1.76,3.47,0,6.53.62,9.18,1.85,2.65,1.23,4.69,3.05,6.11,5.44,1.43,2.39,2.19,5.11,2.3,8.14l-5.94.49c-.32-3.26-1.4-5.73-3.24-7.4-1.84-1.67-4.56-2.5-8.16-2.5s-6.48.76-8.19,2.27-2.57,3.34-2.57,5.48c0,1.86.61,3.38,1.82,4.58,1.19,1.2,4.3,2.42,9.34,3.68,5.03,1.26,8.49,2.35,10.36,3.29,2.72,1.39,4.73,3.14,6.03,5.27,1.3,2.13,1.95,4.57,1.95,7.34s-.71,5.34-2.14,7.77c-1.43,2.43-3.47,4.32-6.15,5.67-2.67,1.35-5.68,2.03-9.02,2.03-4.24,0-7.78-.68-10.65-2.04s-5.11-3.41-6.74-6.15-2.49-5.83-2.57-9.28Z"/>
    <path class="cls-1" d="M836.92,325.82c0-8.57,2.09-15.28,6.26-20.13s9.56-7.27,16.15-7.27c4.32,0,8.21,1.14,11.68,3.42,3.47,2.28,6.11,5.45,7.93,9.53s2.73,8.69,2.73,13.86-.96,9.92-2.87,14.05c-1.92,4.13-4.63,7.26-8.14,9.39s-7.3,3.19-11.36,3.19c-4.41,0-8.34-1.17-11.81-3.52-3.47-2.35-6.1-5.55-7.88-9.62-1.79-4.06-2.68-8.36-2.68-12.89ZM843.31,325.93c0,6.22,1.52,11.12,4.55,14.71,3.03,3.58,6.84,5.37,11.41,5.37s8.5-1.81,11.51-5.42c3.01-3.62,4.52-8.75,4.52-15.39,0-4.2-.64-7.87-1.93-11.01-1.29-3.13-3.17-5.57-5.65-7.29s-5.26-2.59-8.35-2.59c-4.38,0-8.16,1.66-11.32,4.98-3.16,3.32-4.74,8.87-4.74,16.64Z"/>
    <path class="cls-1" d="M923.05,332.87l6.19,1.73c-1.3,5.61-3.63,9.89-7.01,12.84-3.37,2.95-7.5,4.42-12.37,4.42s-9.15-1.13-12.31-3.4c-3.16-2.27-5.57-5.55-7.21-9.84-1.65-4.3-2.47-8.91-2.47-13.84,0-5.38.93-10.07,2.79-14.07,1.86-4,4.51-7.04,7.95-9.12,3.44-2.08,7.22-3.12,11.35-3.12,4.68,0,8.62,1.32,11.81,3.94,3.19,2.63,5.42,6.33,6.67,11.1l-6.1,1.58c-1.09-3.76-2.66-6.49-4.72-8.21-2.06-1.71-4.66-2.57-7.79-2.57-3.6,0-6.6.95-9.02,2.85-2.42,1.9-4.11,4.46-5.09,7.66-.98,3.21-1.47,6.51-1.47,9.92,0,4.39.58,8.22,1.74,11.5,1.16,3.28,2.96,5.72,5.41,7.34,2.45,1.62,5.1,2.43,7.95,2.43,3.47,0,6.41-1.1,8.81-3.31,2.4-2.21,4.03-5.48,4.88-9.83Z"/>
    <path class="cls-1" d="M937.93,350.97v-51.63h6.19v51.63h-6.19Z"/>
    <path class="cls-1" d="M949.9,350.97l17.97-51.63h6.67l19.15,51.63h-7.06l-5.46-15.64h-19.57l-5.14,15.64h-6.58ZM963.4,329.77h15.87l-4.88-14.3c-1.49-4.34-2.6-7.91-3.32-10.71-.6,3.31-1.44,6.6-2.52,9.86l-5.14,15.15Z"/>
    <path class="cls-1" d="M1032.04,332.87l6.19,1.73c-1.3,5.61-3.63,9.89-7.01,12.84-3.37,2.95-7.5,4.42-12.37,4.42s-9.15-1.13-12.31-3.4c-3.16-2.27-5.57-5.55-7.21-9.84-1.65-4.3-2.47-8.91-2.47-13.84,0-5.38.93-10.07,2.79-14.07,1.86-4,4.51-7.04,7.95-9.12,3.44-2.08,7.22-3.12,11.35-3.12,4.68,0,8.62,1.32,11.81,3.94,3.19,2.63,5.42,6.33,6.67,11.1l-6.1,1.58c-1.09-3.76-2.66-6.49-4.72-8.21-2.06-1.71-4.66-2.57-7.79-2.57-3.6,0-6.6.95-9.02,2.85-2.42,1.9-4.11,4.46-5.09,7.66-.98,3.21-1.47,6.51-1.47,9.92,0,4.39.58,8.22,1.74,11.5,1.16,3.28,2.96,5.72,5.41,7.34,2.45,1.62,5.1,2.43,7.95,2.43,3.47,0,6.41-1.1,8.81-3.31,2.4-2.21,4.03-5.48,4.88-9.83ZM1013.39,356.4l1.66-6.23h4.28l-1.05,3.77c1.81.23,3.17.85,4.09,1.85s1.37,2.11,1.37,3.33c0,1.76-.77,3.32-2.3,4.67s-3.84,2.03-6.93,2.03c-1.75,0-3.28-.14-4.6-.42l.35-4.12c1.36.09,2.36.14,3,.14,2,0,3.4-.31,4.21-.92.62-.47.93-1.04.93-1.73,0-.42-.12-.8-.37-1.13-.25-.33-.7-.61-1.36-.85-.66-.24-1.75-.36-3.29-.39Z"/>
    <path class="cls-1" d="M1040.72,350.97l17.97-51.63h6.67l19.15,51.63h-7.06l-5.46-15.64h-19.57l-5.14,15.64h-6.58ZM1051.96,296.17c-.02-2.44.58-4.39,1.82-5.85,1.21-1.46,2.77-2.18,4.66-2.18,1.32,0,3.12.63,5.39,1.9,1.26.7,2.26,1.06,3,1.06.68,0,1.2-.21,1.56-.62.36-.41.62-1.23.77-2.45h4.15c-.06,2.68-.68,4.68-1.84,6.02-1.16,1.34-2.63,2.01-4.42,2.01-1.34,0-3.11-.66-5.3-1.97-1.43-.85-2.47-1.27-3.13-1.27-.72,0-1.31.28-1.76.85-.47.56-.69,1.4-.67,2.5h-4.25ZM1054.23,329.77h15.87l-4.88-14.3c-1.49-4.34-2.6-7.91-3.32-10.71-.6,3.31-1.44,6.6-2.52,9.86l-5.14,15.15Z"/>
    <path class="cls-1" d="M1087.59,325.82c0-8.57,2.09-15.28,6.26-20.13s9.56-7.27,16.15-7.27c4.32,0,8.21,1.14,11.68,3.42,3.47,2.28,6.11,5.45,7.93,9.53s2.73,8.69,2.73,13.86-.96,9.92-2.87,14.05c-1.92,4.13-4.63,7.26-8.14,9.39s-7.3,3.19-11.36,3.19c-4.41,0-8.34-1.17-11.81-3.52-3.47-2.35-6.1-5.55-7.88-9.62-1.79-4.06-2.68-8.36-2.68-12.89ZM1093.97,325.93c0,6.22,1.52,11.12,4.55,14.71,3.03,3.58,6.84,5.37,11.41,5.37s8.5-1.81,11.51-5.42c3.01-3.62,4.52-8.75,4.52-15.39,0-4.2-.64-7.87-1.93-11.01-1.29-3.13-3.17-5.57-5.65-7.29s-5.26-2.59-8.35-2.59c-4.38,0-8.16,1.66-11.32,4.98-3.16,3.32-4.74,8.87-4.74,16.64Z"/>
    <path class="cls-1" d="M593.6,437.53v-51.63h16.12c3.64,0,6.42.25,8.33.74,2.68.68,4.97,1.91,6.86,3.7,2.47,2.3,4.31,5.24,5.54,8.82,1.22,3.58,1.83,7.67,1.83,12.27,0,3.92-.41,7.4-1.24,10.43s-1.89,5.54-3.19,7.52c-1.3,1.99-2.72,3.55-4.26,4.68-1.54,1.14-3.41,2-5.59,2.59-2.18.59-4.69.88-7.52.88h-16.89ZM599.8,431.44h9.99c3.09,0,5.51-.32,7.26-.95,1.76-.63,3.16-1.53,4.2-2.68,1.47-1.62,2.61-3.8,3.43-6.53s1.23-6.05,1.23-9.95c0-5.4-.8-9.55-2.41-12.45-1.61-2.9-3.56-4.84-5.86-5.83-1.66-.7-4.33-1.06-8.01-1.06h-9.83v39.45Z"/>
    <path class="cls-1" d="M638.93,412.38c0-8.57,2.09-15.28,6.26-20.13s9.56-7.27,16.15-7.27c4.32,0,8.21,1.14,11.68,3.42,3.47,2.28,6.11,5.45,7.93,9.53s2.73,8.69,2.73,13.86-.96,9.92-2.87,14.05c-1.92,4.13-4.63,7.26-8.14,9.39s-7.3,3.19-11.36,3.19c-4.41,0-8.34-1.17-11.81-3.52-3.47-2.35-6.1-5.55-7.88-9.62-1.79-4.06-2.68-8.36-2.68-12.89ZM645.32,412.49c0,6.22,1.52,11.12,4.55,14.71,3.03,3.58,6.84,5.37,11.41,5.37s8.5-1.81,11.51-5.42c3.01-3.62,4.52-8.75,4.52-15.39,0-4.2-.64-7.87-1.93-11.01-1.29-3.13-3.17-5.57-5.65-7.29s-5.26-2.59-8.35-2.59c-4.38,0-8.16,1.66-11.32,4.98-3.16,3.32-4.74,8.87-4.74,16.64Z"/>
    <path class="cls-1" d="M689.56,420.94l5.84-.56c.28,2.58.92,4.7,1.93,6.36,1.01,1.66,2.58,2.99,4.71,4.02s4.52,1.53,7.18,1.53c2.36,0,4.45-.39,6.26-1.16,1.81-.78,3.16-1.84,4.04-3.19s1.33-2.82,1.33-4.42-.43-3.03-1.28-4.24c-.85-1.21-2.26-2.22-4.21-3.05-1.26-.54-4.03-1.38-8.33-2.52-4.3-1.14-7.31-2.21-9.04-3.22-2.23-1.29-3.9-2.89-5-4.81-1.1-1.91-1.64-4.06-1.64-6.43,0-2.61.67-5.04,2.01-7.31,1.34-2.27,3.3-3.99,5.87-5.16,2.58-1.17,5.44-1.76,8.59-1.76,3.47,0,6.53.62,9.18,1.85,2.65,1.23,4.69,3.05,6.11,5.44,1.43,2.39,2.19,5.11,2.3,8.14l-5.94.49c-.32-3.26-1.4-5.73-3.24-7.4-1.84-1.67-4.56-2.5-8.16-2.5s-6.48.76-8.19,2.27-2.57,3.34-2.57,5.48c0,1.86.61,3.38,1.82,4.58,1.19,1.2,4.3,2.42,9.34,3.68,5.03,1.26,8.49,2.35,10.36,3.29,2.72,1.39,4.73,3.14,6.03,5.27,1.3,2.13,1.95,4.57,1.95,7.34s-.71,5.34-2.14,7.77c-1.43,2.43-3.47,4.32-6.15,5.67-2.67,1.35-5.68,2.03-9.02,2.03-4.24,0-7.78-.68-10.65-2.04s-5.11-3.41-6.74-6.15-2.49-5.83-2.57-9.28Z"/>
    <path class="cls-1" d="M753.76,437.53v-51.63h31.57v6.09h-25.38v15.99h21.96v6.09h-21.96v23.46h-6.19Z"/>
    <path class="cls-1" d="M824.09,385.9h6.19v29.83c0,5.19-.53,9.31-1.6,12.36-1.06,3.05-2.98,5.54-5.76,7.45-2.78,1.91-6.42,2.87-10.93,2.87s-7.97-.83-10.76-2.5c-2.79-1.67-4.78-4.08-5.97-7.24-1.19-3.16-1.79-7.47-1.79-12.94v-29.83h6.19v29.8c0,4.49.38,7.79,1.13,9.92.76,2.13,2.05,3.76,3.89,4.91s4.09,1.73,6.75,1.73c4.55,0,7.8-1.14,9.74-3.42,1.94-2.28,2.91-6.66,2.91-13.14v-29.8Z"/>
    <path class="cls-1" d="M840.53,437.53v-51.63h6.35l24.58,40.54v-40.54h5.94v51.63h-6.35l-24.58-40.58v40.58h-5.94Z"/>
    <path class="cls-1" d="M921.2,419.43l6.19,1.73c-1.3,5.61-3.63,9.89-7.01,12.84-3.37,2.95-7.5,4.42-12.37,4.42s-9.15-1.13-12.31-3.4c-3.16-2.27-5.57-5.55-7.21-9.84-1.65-4.3-2.47-8.91-2.47-13.84,0-5.38.93-10.07,2.79-14.07,1.86-4,4.51-7.04,7.95-9.12,3.44-2.08,7.22-3.12,11.35-3.12,4.68,0,8.62,1.32,11.81,3.94,3.19,2.63,5.42,6.33,6.67,11.1l-6.1,1.58c-1.09-3.76-2.66-6.49-4.72-8.21-2.06-1.71-4.66-2.57-7.79-2.57-3.6,0-6.6.95-9.02,2.85-2.42,1.9-4.11,4.46-5.09,7.66-.98,3.21-1.47,6.51-1.47,9.92,0,4.39.58,8.22,1.74,11.5,1.16,3.28,2.96,5.72,5.41,7.34,2.45,1.62,5.1,2.43,7.95,2.43,3.47,0,6.41-1.1,8.81-3.31,2.4-2.21,4.03-5.48,4.88-9.83Z"/>
    <path class="cls-1" d="M936.08,437.53v-51.63h6.19v51.63h-6.19Z"/>
    <path class="cls-1" d="M951.3,412.38c0-8.57,2.09-15.28,6.26-20.13s9.56-7.27,16.15-7.27c4.32,0,8.21,1.14,11.68,3.42,3.47,2.28,6.11,5.45,7.93,9.53s2.73,8.69,2.73,13.86-.96,9.92-2.87,14.05c-1.92,4.13-4.63,7.26-8.14,9.39s-7.3,3.19-11.36,3.19c-4.41,0-8.34-1.17-11.81-3.52-3.47-2.35-6.1-5.55-7.88-9.62-1.79-4.06-2.68-8.36-2.68-12.89ZM957.69,412.49c0,6.22,1.52,11.12,4.55,14.71,3.03,3.58,6.84,5.37,11.41,5.37s8.5-1.81,11.51-5.42c3.01-3.62,4.52-8.75,4.52-15.39,0-4.2-.64-7.87-1.93-11.01-1.29-3.13-3.17-5.57-5.65-7.29s-5.26-2.59-8.35-2.59c-4.38,0-8.16,1.66-11.32,4.98-3.16,3.32-4.74,8.87-4.74,16.64Z"/>
    <path class="cls-1" d="M1003.98,437.53v-51.63h6.35l24.58,40.54v-40.54h5.94v51.63h-6.35l-24.58-40.58v40.58h-5.94Z"/>
    <path class="cls-1" d="M1046.12,437.53l17.97-51.63h6.67l19.15,51.63h-7.06l-5.46-15.64h-19.57l-5.14,15.64h-6.58ZM1059.62,416.33h15.87l-4.88-14.3c-1.49-4.34-2.6-7.91-3.32-10.71-.6,3.31-1.44,6.6-2.52,9.86l-5.14,15.15ZM1063.48,382.73l4.25-9.86h7.53l-7.02,9.86h-4.76Z"/>
    <path class="cls-1" d="M1094.96,437.53v-51.63h20.75c4.17,0,7.34.46,9.51,1.39,2.17.93,3.9,2.57,5.2,4.91,1.3,2.35,1.95,4.94,1.95,7.78,0,3.66-1.08,6.75-3.22,9.26-2.15,2.51-5.47,4.11-9.96,4.79,1.64.87,2.88,1.73,3.74,2.57,1.81,1.83,3.52,4.12,5.14,6.87l8.14,14.05h-7.79l-6.19-10.74c-1.81-3.1-3.3-5.47-4.47-7.12-1.17-1.64-2.22-2.79-3.14-3.45-.93-.66-1.87-1.11-2.83-1.37-.7-.16-1.85-.25-3.45-.25h-7.18v22.93h-6.19ZM1101.15,408.69h13.31c2.83,0,5.04-.32,6.64-.97,1.6-.65,2.81-1.68,3.64-3.1.83-1.42,1.25-2.96,1.25-4.63,0-2.44-.8-4.45-2.41-6.02-1.61-1.57-4.14-2.36-7.61-2.36h-14.81v17.08Z"/>
    <path class="cls-1" d="M1143.13,437.53v-51.63h6.19v51.63h-6.19Z"/>
    <path class="cls-1" d="M1158.36,412.38c0-8.57,2.09-15.28,6.26-20.13s9.56-7.27,16.15-7.27c4.32,0,8.21,1.14,11.68,3.42,3.47,2.28,6.11,5.45,7.93,9.53s2.73,8.69,2.73,13.86-.96,9.92-2.87,14.05c-1.92,4.13-4.63,7.26-8.14,9.39s-7.3,3.19-11.36,3.19c-4.41,0-8.34-1.17-11.81-3.52-3.47-2.35-6.1-5.55-7.88-9.62-1.79-4.06-2.68-8.36-2.68-12.89ZM1164.74,412.49c0,6.22,1.52,11.12,4.55,14.71,3.03,3.58,6.84,5.37,11.41,5.37s8.5-1.81,11.51-5.42c3.01-3.62,4.52-8.75,4.52-15.39,0-4.2-.64-7.87-1.93-11.01-1.29-3.13-3.17-5.57-5.65-7.29s-5.26-2.59-8.35-2.59c-4.38,0-8.16,1.66-11.32,4.98-3.16,3.32-4.74,8.87-4.74,16.64Z"/>
    <path class="cls-1" d="M1208.99,420.94l5.84-.56c.28,2.58.92,4.7,1.93,6.36,1.01,1.66,2.58,2.99,4.71,4.02s4.52,1.53,7.18,1.53c2.36,0,4.45-.39,6.26-1.16,1.81-.78,3.16-1.84,4.04-3.19s1.33-2.82,1.33-4.42-.43-3.03-1.28-4.24c-.85-1.21-2.26-2.22-4.21-3.05-1.26-.54-4.03-1.38-8.33-2.52-4.3-1.14-7.31-2.21-9.04-3.22-2.23-1.29-3.9-2.89-5-4.81-1.1-1.91-1.64-4.06-1.64-6.43,0-2.61.67-5.04,2.01-7.31,1.34-2.27,3.3-3.99,5.87-5.16,2.58-1.17,5.44-1.76,8.59-1.76,3.47,0,6.53.62,9.18,1.85,2.65,1.23,4.69,3.05,6.11,5.44,1.43,2.39,2.19,5.11,2.3,8.14l-5.94.49c-.32-3.26-1.4-5.73-3.24-7.4-1.84-1.67-4.56-2.5-8.16-2.5s-6.48.76-8.19,2.27-2.57,3.34-2.57,5.48c0,1.86.61,3.38,1.82,4.58,1.19,1.2,4.3,2.42,9.34,3.68,5.03,1.26,8.49,2.35,10.36,3.29,2.72,1.39,4.73,3.14,6.03,5.27,1.3,2.13,1.95,4.57,1.95,7.34s-.71,5.34-2.14,7.77c-1.43,2.43-3.47,4.32-6.15,5.67-2.67,1.35-5.68,2.03-9.02,2.03-4.24,0-7.78-.68-10.65-2.04s-5.11-3.41-6.74-6.15-2.49-5.83-2.57-9.28Z"/>
    <path class="cls-1" d="M758.84,524.09v-51.63h16.12c3.64,0,6.42.25,8.33.74,2.68.68,4.97,1.91,6.86,3.7,2.47,2.3,4.31,5.24,5.54,8.82,1.22,3.58,1.83,7.67,1.83,12.27,0,3.92-.41,7.4-1.24,10.43s-1.89,5.54-3.19,7.52c-1.3,1.99-2.72,3.55-4.26,4.68-1.54,1.14-3.41,2-5.59,2.59-2.18.59-4.69.88-7.52.88h-16.89ZM765.03,518h9.99c3.09,0,5.51-.32,7.26-.95,1.76-.63,3.16-1.53,4.2-2.68,1.47-1.62,2.61-3.8,3.43-6.53s1.23-6.05,1.23-9.95c0-5.4-.8-9.55-2.41-12.45-1.61-2.9-3.56-4.84-5.86-5.83-1.66-.7-4.33-1.06-8.01-1.06h-9.83v39.45Z"/>
    <path class="cls-1" d="M806.18,524.09v-51.63h33.84v6.09h-27.65v15.81h25.89v6.06h-25.89v17.58h28.73v6.09h-34.92Z"/>
    <path class="cls-1" d="M865.72,507.5l5.84-.56c.28,2.58.92,4.7,1.93,6.36,1.01,1.66,2.58,2.99,4.71,4.02s4.52,1.53,7.18,1.53c2.36,0,4.45-.39,6.26-1.16,1.81-.78,3.16-1.84,4.04-3.19s1.33-2.82,1.33-4.42-.43-3.03-1.28-4.24c-.85-1.21-2.26-2.22-4.21-3.05-1.26-.54-4.03-1.38-8.33-2.52-4.3-1.14-7.31-2.21-9.04-3.22-2.23-1.29-3.9-2.89-5-4.81-1.1-1.91-1.64-4.06-1.64-6.43,0-2.61.67-5.04,2.01-7.31,1.34-2.27,3.3-3.99,5.87-5.16,2.58-1.17,5.44-1.76,8.59-1.76,3.47,0,6.53.62,9.18,1.85,2.65,1.23,4.69,3.05,6.11,5.44,1.43,2.39,2.19,5.11,2.3,8.14l-5.94.49c-.32-3.26-1.4-5.73-3.24-7.4-1.84-1.67-4.56-2.5-8.16-2.5s-6.48.76-8.19,2.27-2.57,3.34-2.57,5.48c0,1.86.61,3.38,1.82,4.58,1.19,1.2,4.3,2.42,9.34,3.68,5.03,1.26,8.49,2.35,10.36,3.29,2.72,1.39,4.73,3.14,6.03,5.27,1.3,2.13,1.95,4.57,1.95,7.34s-.71,5.34-2.14,7.77c-1.43,2.43-3.47,4.32-6.15,5.67-2.67,1.35-5.68,2.03-9.02,2.03-4.24,0-7.78-.68-10.65-2.04s-5.11-3.41-6.74-6.15-2.49-5.83-2.57-9.28Z"/>
    <path class="cls-1" d="M942.14,472.46h6.19v29.83c0,5.19-.53,9.31-1.6,12.36-1.06,3.05-2.98,5.54-5.76,7.45-2.78,1.91-6.42,2.87-10.93,2.87s-7.97-.83-10.76-2.5c-2.79-1.67-4.78-4.08-5.97-7.24-1.19-3.16-1.79-7.47-1.79-12.94v-29.83h6.19v29.8c0,4.49.38,7.79,1.13,9.92.76,2.13,2.05,3.76,3.89,4.91s4.09,1.73,6.75,1.73c4.55,0,7.8-1.14,9.74-3.42,1.94-2.28,2.91-6.66,2.91-13.14v-29.8Z"/>
    <path class="cls-1" d="M953.51,524.09l17.97-51.63h6.67l19.15,51.63h-7.06l-5.46-15.64h-19.57l-5.14,15.64h-6.58ZM967.01,502.89h15.87l-4.88-14.3c-1.49-4.34-2.6-7.91-3.32-10.71-.6,3.31-1.44,6.6-2.52,9.86l-5.14,15.15Z"/>
    <path class="cls-1" d="M1002.25,524.09v-51.63h17.65c3.11,0,5.48.16,7.12.49,2.3.42,4.22,1.23,5.78,2.41,1.55,1.19,2.8,2.85,3.75,4.98.95,2.14,1.42,4.49,1.42,7.04,0,4.39-1.27,8.11-3.8,11.15-2.53,3.04-7.11,4.56-13.73,4.56h-12v20.99h-6.19ZM1008.45,497.01h12.1c4,0,6.84-.82,8.52-2.46,1.68-1.64,2.52-3.96,2.52-6.94,0-2.16-.49-4.01-1.48-5.55-.99-1.54-2.29-2.55-3.91-3.05-1.04-.3-2.97-.46-5.78-.46h-11.97v18.46Z"/>
    <path class="cls-1" d="M1045.99,524.09v-51.63h33.84v6.09h-27.65v15.81h25.89v6.06h-25.89v17.58h28.73v6.09h-34.92Z"/>
  </g>
</svg>